<svg id="Layer_1" data-name="Layer 1" xmlns="http://www.w3.org/2000/svg" viewBox="0 0 373.68 237.76"><defs><style>.cls-1{fill:#179cee;}.cls-2{fill:#e5f4fb;}.cls-3{fill:#fbfdfb;}.cls-4{fill:#e5f3fa;}.cls-5{fill:#38a4e5;}.cls-6{fill:#39a5e6;}.cls-7{fill:#2ea1e7;}.cls-8{fill:#e4f3fa;}.cls-9{fill:#189cee;}</style></defs><path class="cls-1" d="M-147.38,391.15q0,27,0,54c0,9-1.74,11.59-10.11,15-10.62,4.31-21.88,5.64-33.15,6.69a193.38,193.38,0,0,1-43.35-.64,7.39,7.39,0,0,0-7.08,2.43c-4.53,4.88-9.34,9.5-14.07,14.19-5.25,5.19-8.73,5.62-15.13,1.88-4.45-2.61-8.83-5.33-13.29-7.93-1.12-.65-2.66-1.74-3.58-1.41a163.44,163.44,0,0,0-18,7.23c-3.46,1.73-2.8,6.15-3.82,9.4-1.19,3.8-1.92,7.74-3,11.58-1.34,4.68-4.41,7.35-9.42,7.37-7.5,0-15,.1-22.48,0-5.68-.1-8.58-2.56-9.95-8s-2.82-10.61-3.94-16a6.73,6.73,0,0,0-4.94-5.6c-2.84-.92-5.89-1.68-8.32-3.3-5.4-3.6-10.05-2.78-14.93,1a81.51,81.51,0,0,1-9.37,5.7c-6.46,3.71-9.9,3.29-15.13-1.9-4.85-4.8-9.76-9.55-14.41-14.55a9.1,9.1,0,0,0-7.42-3.1q-20.73.2-41.47,0c-21.95-.14-40.37-15-45.83-36.79-5.09-20.32,4.5-42.89,23-52.91,4.17-2.26,5.8-4.8,6.33-9.44,3.38-29.68,28.31-49.81,58.14-47.2a7.8,7.8,0,0,0,7.37-2.8c4.87-5.45,10.15-10.57,15.41-15.66,3.76-3.64,8.09-4.36,12.76-1.57,4.85,2.91,9.79,5.67,14.55,8.73,2.55,1.64,4.86,1.9,7.43.32a6.19,6.19,0,0,1,2.24-1.08c13.41-1.91,16.16-12.07,18.19-23.05,1.61-8.69,4.08-10.46,12.91-10.49,6.33,0,12.66-.06,19,0s9.11,2.41,10.66,8.43c1.32,5.15,2.66,10.31,3.79,15.5a7,7,0,0,0,5.35,5.85c3.18.93,6.54,1.88,9.24,3.69,4.72,3.17,8.57,2,12.74-.88a124.88,124.88,0,0,1,11.1-6.71c5.87-3.23,9.14-2.75,13.88,1.89,4.29,4.18,8.67,8.29,12.67,12.74,2.57,2.85,5.32,3.14,8.89,2.93,22.78-1.38,45.55-2.29,68,3.29a57.09,57.09,0,0,1,11.69,4.26c4.42,2.2,7.09,5.45,7,11-.24,18.65-.09,37.3-.09,55.94Z" transform="translate(520.91 -273.17)"/><path class="cls-2" d="M-409.85,346.62c.19-2.21-.77-4.3-2-6.33-2.77-4.54-5.42-9.16-8.27-13.66-1.87-2.95-1.92-5.31.86-7.87,4.64-4.29,9.08-8.82,13.45-13.4,2.25-2.36,4.34-2.52,7-.82,4.65,2.93,9.49,5.55,14.12,8.5a11.28,11.28,0,0,0,11.83.71,87.58,87.58,0,0,1,13.35-5.55c4.06-1.21,6.31-4.13,7.32-8.12,1.39-5.48,2.8-11,4.13-16.46.78-3.24,2.62-4.67,6.05-4.57q9.24.26,18.49,0c3.74-.12,5.46,1.74,6.28,5.06,1.31,5.32,2.79,10.62,4,16a10.61,10.61,0,0,0,7.76,8.28A67.89,67.89,0,0,1-293,313.52c4.23,2.33,8.24,2,12.27-.5,4.67-2.9,9.44-5.63,14.1-8.53,2.23-1.39,4.19-1.77,6.26.31,4.7,4.71,9.44,9.39,14.25,14,2.63,2.53,2.62,5.07.77,8-2.91,4.65-5.69,9.38-8.52,14.08a10.47,10.47,0,0,0-.43,10.89,88.18,88.18,0,0,1,5.55,13.35c1.35,4.3,4.38,6.85,8.91,7.79,5,1,10,2.46,15,3.61,3.36.78,5.22,2.44,5.11,6.2q-.27,9.22,0,18.48c.12,4-1.87,5.73-5.41,6.52-5,1.14-10,2.44-15.05,3.56-4.47,1-7.23,3.67-8.77,8a110,110,0,0,1-5.11,12.46,11.47,11.47,0,0,0,.54,12.25c2.67,4.2,5.08,8.57,7.77,12.76,2.19,3.39,2.42,6.23-.86,9.22-4.44,4-8.61,8.34-12.79,12.65-2.33,2.41-4.57,2.82-7.48.91-4.46-2.9-9.15-5.45-13.65-8.29-4-2.55-8-3-12.28-.74a71.84,71.84,0,0,1-12.42,5.2c-4.57,1.4-7.22,4.46-8.27,9.11-1.17,5.19-2.56,10.33-3.81,15.5-.77,3.17-2.52,4.82-6,4.75-6.33-.14-12.66-.13-19,0-3.45.07-5.13-1.49-5.85-4.78-1.15-5.19-2.64-10.31-3.84-15.5-1.06-4.61-3.57-7.59-8.22-9.09a88.72,88.72,0,0,1-12.43-5.16c-4.36-2.19-8.26-1.77-12.26.72-4.52,2.82-9.23,5.34-13.68,8.25-2.67,1.75-4.75,1.82-7-.55q-6.94-7.17-14.15-14.11c-2.21-2.12-2.27-4.11-.71-6.62,3.07-4.95,5.95-10,9-15,2.17-3.6,2.1-7.15.34-10.93a129.17,129.17,0,0,1-5.33-12.9,11.15,11.15,0,0,0-8.71-8c-5-1.14-10-2.51-15.05-3.58-3.8-.81-5.82-2.65-5.68-6.82.2-5.82.2-11.66,0-17.48-.14-4.33,1.86-6.34,5.93-7.16,4.89-1,9.7-2.36,14.56-3.48a11.31,11.31,0,0,0,8.85-7.85c1.58-4.55,3.61-8.94,5.59-13.34A11.59,11.59,0,0,0-409.85,346.62Z" transform="translate(520.91 -273.17)"/><path class="cls-3" d="M-453.86,459.62c-7.42-.35-15.74.48-24.05-.59-18.94-2.43-33.83-17.3-36.61-36.73-2.53-17.63,8-36.45,24.95-43.67,3.65-1.56,4.85-3.32,4.9-7.3.31-27,23.59-48.63,50.28-47,4.09.24,7.57,1.09,9,5.49a7,7,0,0,0,.83,1.25c9.24,15.42,9.19,15.4,2.14,31.89a6.76,6.76,0,0,1-5.16,4.14c-5.34,1.29-10.69,2.51-16,4-6.05,1.69-8.19,4.56-8.24,10.81q-.11,10.25,0,20.48c.08,6.51,2.27,9.19,8.75,10.86,5,1.29,10,2.49,15,3.78,6.35,1.64,13.54,19.41,10.15,25-2.75,4.51-5.69,8.92-8.06,13.62-1.71,3.37-4,4.27-7.56,4.13C-440,459.45-446.47,459.62-453.86,459.62Z" transform="translate(520.91 -273.17)"/><path class="cls-3" d="M-158,454c-24.9,8.79-50.54,8.18-76.31,6.16a4.76,4.76,0,0,1-4.19-2.87c-2.83-5.07-5.78-10.08-8.95-14.95a9.18,9.18,0,0,1-1.36-8c5.66-11.68,2.76-11.34,17.18-9.84,22.31,2.33,44.52,1.63,66.44-3.74,2.59-.64,5.05-1.67,7.59-2.46,3.79-1.17,5-.36,5.05,3.49.09,8.49-.06,17,.06,25.47C-152.48,451.15-155.08,452.63-158,454Z" transform="translate(520.91 -273.17)"/><path class="cls-3" d="M-213.95,383.82c.32-8.83-1.36-11.1-9.91-13.27-4.66-1.19-9.32-2.42-14-3.46a6.9,6.9,0,0,1-5.37-4.62c-1.49-3.86-3-7.74-4.78-11.47-1.61-3.37.2-3.33,2.54-2.89a193.73,193.73,0,0,0,45.67,2.8c12.76-.64,25.55-1.46,37.76-5.84,10.61-4.83,9.57-3.48,9.49,6,0,5.82,0,11.63,0,17.44,0,6.38-1.89,9.22-8.12,11.37A103.81,103.81,0,0,1-188,385.38c-7.72.5-15.47,2.24-23.24.14C-212.39,385.2-213.48,385.11-213.95,383.82Z" transform="translate(520.91 -273.17)"/><path class="cls-3" d="M-230.91,415a2.1,2.1,0,0,0,.5,0c17.17-3.32,17-5.12,16.59-19.35-.06-2.15-.06-4.3-.09-6.45,2.8-2.87,6.57-2.63,10-2.65,15.72-.09,31.12-1.93,46-7.25,2.6-.93,5.24-1.26,5.28,2.62q.17,15,0,29.9A3.63,3.63,0,0,1-153.7,414c-5.06,5.6-12.13,6.74-18.93,7.95-21.38,3.81-42.87,4.69-64.43,1.45a14.43,14.43,0,0,1-2.93-.55c-1.33-.49-2.41-1.3-2.47-2.8,0-1.33,1-2,2-2.58C-237.48,415.81-234.09,415.82-230.91,415Z" transform="translate(520.91 -273.17)"/><path class="cls-4" d="M-209.67,345.08a217.41,217.41,0,0,1-31.83-2.34c-5.79-.82-5.94-1.36-2.81-6.13,1.82-2.79,4.11-5.48,5.06-8.56,1.34-4.37,4.19-5.4,8.09-5.69,21.5-1.6,42.88-1.46,64,3.7a46.64,46.64,0,0,1,9.82,3.6c1.5.76,3.2,1.38,3.39,3.3.23,2.32-1.82,3-3.36,3.86a50,50,0,0,1-12.21,4.2C-182.74,344.14-196.16,345-209.67,345.08Z" transform="translate(520.91 -273.17)"/><path class="cls-5" d="M-230.91,415c-2.33,1.41-5,1.63-7.56,2.35-1.42.39-3.29.71-3.29,2.51,0,2.1,2.09,1.78,3.45,1.95a210.92,210.92,0,0,0,60.11-.47c8.44-1.34,16.67-3.09,24.16-7.39.35-.45.7-.42,1,0-.45.69-1.45,1.77-1.27,2,4.61,6.48,1.31,13.76,2.15,20.6.42,3.44.05,7,.08,10.46,0,4.11-1.66,6.64-6,6.87,3.87-2.21,5.05-5.48,4.83-9.92-.36-7.45-.11-14.94-.11-22.41,0-2.05-.12-3.88-3-2.55-11.85,5.48-24.65,6.66-37.35,7.57-14.4,1-28.89,1.13-43.22-1.31-4.75-.81-8.44-.47-9.6,5.23-.28,1.35-1.54,2.49-2.35,3.72-.22-3.15,1.91-5.47,3-8.17.78-2,2.3-3.46,2.28-6.09s3.14-3.32,5.47-4.19A16.14,16.14,0,0,1-230.91,415Z" transform="translate(520.91 -273.17)"/><path class="cls-6" d="M-153,414l-1,0c1.59-10.73.36-21.52.66-32.28,0-1.73-.75-2.41-2.53-1.66-17.38,7.32-35.76,8.11-54.23,8.19a6,6,0,0,0-3.77,1c1.3-2,1.3-2,3.88-2.61-1.14-1.27-4.24.22-3.92-2.81,4.59,2.28,9.46,1.12,14.15.88,12.77-.63,25.5-1.77,37.75-5.84,8.33-2.78,8.73-3.36,8.73-11.9,0-6.3,0-12.61,0-18.92,0-5.7,0-5.67-5.37-3.72a28.7,28.7,0,0,1-3.36.75c2.55-2.17,5.72-4.57,8.73-3.18,2.75,1.27,1.15,5.13,1.23,7.83.18,6.45.9,13.06-.18,19.33-1.13,6.63.35,12.94.26,19.39-.1,6.95,0,13.91,0,20.86C-152.08,410.9-151.57,412.66-153,414Z" transform="translate(520.91 -273.17)"/><path class="cls-7" d="M-272.85,392.58A59.89,59.89,0,0,1-333.38,452a60.23,60.23,0,0,1-59.42-60.16c.13-32.9,27.4-59.85,60.43-59.71S-272.63,359.48-272.85,392.58Z" transform="translate(520.91 -273.17)"/><path class="cls-8" d="M-389.15,391.76c.15-31.45,25.26-56.17,56.86-56a56.41,56.41,0,0,1,56.16,56.39c-.07,31-26.15,57-56.76,56.53A56.75,56.75,0,0,1-389.15,391.76Z" transform="translate(520.91 -273.17)"/><path class="cls-9" d="M-332.79,436.22A43.8,43.8,0,0,1-377,392.35c0-25.21,19.39-44.53,44.67-44.49a44.25,44.25,0,0,1,44.15,44.68C-288.36,416.83-308.15,436.22-332.79,436.22Z" transform="translate(520.91 -273.17)"/><path class="cls-3" d="M-332.88,430.17A37.84,37.84,0,0,1-371,391.65c.12-21.22,17.3-37.87,38.92-37.72a38.28,38.28,0,0,1,37.74,38.54A38.21,38.21,0,0,1-332.88,430.17Z" transform="translate(520.91 -273.17)"/></svg>